<?xml version="1.0" encoding="utf-8"?>
<!-- Generator: Adobe Illustrator 25.0.0, SVG Export Plug-In . SVG Version: 6.00 Build 0)  -->
<svg version="1.1" xmlns="http://www.w3.org/2000/svg" xmlns:xlink="http://www.w3.org/1999/xlink" x="0px" y="0px"
	 viewBox="0 0 1920 1080" style="enable-background:new 0 0 1920 1080;" xml:space="preserve">
<style type="text/css">
	.st0{display:none;}
	.st1{display:inline;}
	.st2{fill:#060606;}
	.st3{fill:#424242;}
	.st4{fill:#0A6895;}
	.st5{fill:#FD7627;}
	.st6{fill:#070707;}
	.st7{fill:#090909;}
	.st8{fill:#010101;}
	.st9{fill:#020202;}
	.st10{fill:#0B0B0B;}
	.st11{fill:#0D0D0D;}
	.st12{fill:#0C0C0C;}
	.st13{fill:#F49750;}
	.st14{fill:#384A72;}
	.st15{fill:#FEFEFE;}
</style>
<g id="Camada_1" class="st0">
	<g class="st1">
		<path class="st2" d="M1076.69,902.67c-5.53-4.31-12.46-4.04-18.79-5.25c-8.23-1.57-12.54-5.57-13.04-13.97
			c-0.18-2.95-1.66-5.8-1.96-8.76c-0.33-3.33-3.91-7.03,0.96-10.02c4.09-2.51,6.23,1.21,8.91,2.65
			c18.1,9.69,36.48,18.01,57.83,12.93c3.61-0.86,7.21-2.19,10.51-3.87c23.29-11.9,25.04-33.46,2.81-46.98
			c-17.89-10.88-37.29-19.26-55.73-29.27c-11.25-6.11-19.6-14.8-22.01-28.29c-3.42-19.12,4.13-36.37,21.34-45.48
			c26.95-14.27,55.19-11.99,83.55-5.47c8.6,1.98,4.32,9.31,4.5,14.1c0.54,15.14-0.38,15.43-13.67,9.54
			c-14.6-6.47-29.47-11.19-45.84-6.98c-9.85,2.54-17.29,7.31-19.4,17.86c-2.14,10.68,3.09,17.95,11.43,23.75
			c10.24,7.11,21.34,12.54,32.94,16.95c11.66,4.43,22.69,10.05,32.47,17.73c22.42,17.61,24.22,43.82,4.77,64.73
			c-11.45,12.31-25.75,19.14-42.17,21.87c-2,0.33-4.67-0.94-5.51,2.25c-1.51,0-3.01,0-4.52,0c-6.78-3.4-13.55-3.66-20.33,0
			C1082.72,902.67,1079.7,902.67,1076.69,902.67z"/>
		<path class="st3" d="M1085.73,902.67c6.78-3.66,13.55-3.4,20.33,0C1099.28,902.67,1092.5,902.67,1085.73,902.67z"/>
		<path class="st4" d="M1259.87,539.64c2.82,3.56-1.11,4.45-2.63,5.75c-71.69,61.23-152.97,97.29-249.06,92.85
			c-32.74-1.51-63.96-9.32-90.35-30.31c-31.5-25.06-42.19-63.15-29.42-105.7c13.8-45.96,43.41-81.08,79.32-111.15
			c57.45-48.11,123-79.03,197.99-87.39c34.94-3.89,69.87-2.32,103.46,10.07c21.92,8.09,39.37,21.59,50.53,42.49
			c2.13,3.99,4.26,8,2.4,13.74c-13.28-26.93-33.93-44.71-62.07-53.06c-27.58-8.18-55.21-6.72-81.88,3.58
			c-62.72,24.24-101.27,69.06-113.53,135.63c-0.58,4.06-1.17,8.13-1.74,12.19c-9.21,65.98,39.5,114.35,105.57,105.85
			c29.75-3.83,56.47-14.45,81.65-30.04C1253.1,542.29,1255.43,538.52,1259.87,539.64z"/>
		<path class="st2" d="M503.46,772.51c-9.91,26.35-18.69,49.65-27.43,72.97c-5.65,15.08-11.97,29.96-16.61,45.35
			c-3.41,11.33-11.71,6.19-18.23,7.34c-6.09,1.07-9.09-1.07-11.17-7.53c-15.48-48.08-31.49-95.99-47.39-143.93
			c-2.72-8.19-5.12-16.65-14.34-20.4c-1.14-0.46-2.54-2.14-2.51-3.21c0.06-2.24,2.2-2.72,4.12-2.73c9.78-0.05,19.56,0.03,29.35-0.07
			c6.13-0.07,5.59,5.09,6.79,8.62c13.49,39.76,26.85,79.56,40.28,119.33c0.41,1.21-0.01,3.05,3.45,3.58
			c2.69-7.24,5.44-14.77,8.29-22.26c10.36-27.3,20.71-54.61,31.17-81.88c2.82-7.35,4.67-14.17-2.39-20.54
			c-4.43-3.99-2.5-6.63,2.93-6.78c7.14-0.19,14.32,0.29,21.44-0.15c6.43-0.4,6,4.84,7.12,8.21c13.07,39.46,25.9,79,38.8,118.51
			c0.81,2.47,1.71,4.91,3.29,9.4c9.86-26.73,19.09-51.65,28.25-76.6c4.13-11.24,7.83-22.65,12.26-33.77
			c2.75-6.91,3.27-12.83-2.6-18.44c-5.16-4.93-2.48-7.07,3.25-7.17c9.03-0.16,18.07,0.17,27.09-0.12c6.07-0.2,5.77,2.3,4.09,6.8
			c-20.76,55.38-41.35,110.82-62.12,166.2c-3.73,9.93-12.42,3.23-18.64,4.86c-5.51,1.44-7.5-1.85-9.16-6.95
			C530.32,852.67,517.4,814.33,503.46,772.51z"/>
		<path class="st5" d="M1259.87,539.64c-4.44-1.12-6.78,2.65-9.78,4.51c-25.18,15.59-51.9,26.21-81.65,30.04
			c-66.07,8.5-114.78-39.87-105.57-105.85c0.57-4.07,1.16-8.13,1.74-12.19c0.18,9.74-0.72,19.54,1.76,29.14
			c7.15,27.6,29.91,44.91,61.5,47.58c37.4,3.16,71.62-7.11,103.52-25.2c67.11-38.05,117.69-90.44,139.69-166.36
			c6.84-23.59,9.52-47.66,6.72-72.38c-6.21-54.79-40.13-80.58-93.59-85.62c-26.13-2.46-50.86,3.14-72.93,18.13
			c-2.31,1.57-4.48,2.75-8.01,0.9c15.43-13.58,33.64-20.17,53.1-22.43c45.66-5.31,86.33,5.27,115.94,42.73
			c18.55,23.46,23,51.84,21.36,80.97c-3.83,68.04-34.41,125.05-75.06,177.61c-14.6,18.87-30.67,36.51-49.52,51.38
			c-4.49,0.58-7.85,2.65-9.42,7.09L1259.87,539.64z"/>
		<path class="st6" d="M1428.39,832.72c17.01,0,32.72-0.06,48.43,0.03c4.97,0.03,14.63,14.76,12.44,19.09
			c-1.67,3.3-5.2,2.38-8.12,2.39c-16.18,0.04-32.36-0.2-48.53,0.15c-5.04,0.11-11.81-3.14-14.31,4.89
			c-2.91,9.34-9.81,18.41-1.58,28.5c2.14,2.62,7.84,4.01,5.23,8.63c-2.12,3.77-6.87,1.63-10.4,1.71
			c-10.51,0.24-21.03,0.09-32.94,0.09c9.78-25.55,19.18-50.23,28.68-74.87c9.96-25.84,19.9-51.68,30.09-77.43
			c2.73-6.9,3.14-12.97-2.73-18.43c-5.38-5.01-2.46-6.98,3.03-7.08c12.41-0.22,24.84,0.13,37.24-0.19c4.19-0.11,6.01,1.77,7.43,5.14
			c24.21,57.17,48.46,114.33,73.28,172.87c-10.17,0-19.37-0.33-28.53,0.11c-6.7,0.32-6.61-4.91-8.13-8.74
			c-17.94-45.24-35.79-90.51-53.67-135.78c-0.82-2.07-1.71-4.11-3.58-8.59C1450.25,775.33,1439.52,803.49,1428.39,832.72z"/>
		<path class="st6" d="M604.72,898.19c12.5-32.55,24.65-64.28,36.87-95.99c7.13-18.51,14.27-37.01,21.58-55.45
			c2.8-7.06,4.01-13.42-2.38-19.53c-5.18-4.94-2.05-6.89,3.51-6.91c12.42-0.05,24.83,0.1,37.25-0.09c3.63-0.05,5.43,1.54,6.72,4.61
			c24.07,57.24,48.18,114.46,72.25,171.69c0.12,0.28-0.14,0.72-0.22,1.09c-0.71,0.18-1.43,0.49-2.15,0.52
			c-29.46,1.1-29.43,1.08-40.18-26.2c-15.64-39.7-31.33-79.38-47.02-119.06c-0.65-1.63-0.5-3.8-4.02-5.02
			c-6.98,18.16-14.35,36.24-20.84,54.63c-3.44,9.73-9.17,18.76-9.74,29.45c10.06,0.26,20.13,0.57,30.19,0.76
			c5.27,0.1,10.55,0.26,15.8-0.05c4.76-0.28,7.15,1.16,9.07,6c6.25,15.72,6.56,15.59-10.47,15.6c-14.3,0-28.6-0.19-42.89,0.1
			c-5.08,0.1-11.47-2.68-13.88,5.55c-2.77,9.44-9.62,18.46-1,28.33c2.06,2.36,7.13,3.52,5.55,7.46c-1.75,4.38-6.63,2.36-10.15,2.42
			C627.68,898.32,616.79,898.19,604.72,898.19z"/>
		<path class="st7" d="M797.5,873.28c-8.09-25.35-25.08-44.79-23.34-71.31c1.05-16.1-0.19-32.33,0.33-48.48
			c0.34-10.54,0.16-20.21-10.97-25.67c-1.93-0.95-3.85-2.73-2.64-5.44c0.9-2.03,2.95-2.13,4.83-2.08
			c29.31,0.89,58.78-2.59,87.91,1.97c18.29,2.86,32.57,12.69,37.28,31.53c4.83,19.35-3.84,34.26-18.77,46.14
			c-5.33,4.24-11.03,8.31-17.57,9.84c-9.56,2.23-9.36,5.92-4.63,13.28c8.92,13.87,16.92,28.33,25.29,42.55
			c5.73,9.73,11.37,19.5,21.62,25.4c1.85,1.07,4.34,2.13,3.07,5.04c-0.87,1.99-2.91,2.12-4.83,2.12
			c-9.79,0.01-19.58-0.18-29.36,0.08c-4.51,0.12-5.63-3.18-7.18-6c-13.95-25.27-27.65-50.68-41.82-75.83
			c-4.37-7.76-2.7-10.26,5.95-11.27c10.49-1.22,20.66-4.45,28.83-11.67c9.71-8.58,14.18-19.48,11.07-32.25
			c-3-12.3-12.31-19.02-24.21-20.55c-10.75-1.39-21.78-0.54-32.69-0.76c-7.41-0.15-4.72,5.46-4.74,8.84
			c-0.17,36.84-0.07,73.68-0.17,110.52C800.74,862.86,801.92,866.7,797.5,873.28z"/>
		<path class="st2" d="M957.32,820.54c0-21.78-0.7-43.59,0.29-65.32c0.5-10.94-3.41-13.18-13.17-12.47
			c-10.85,0.79-21.79,0.07-32.7,0.22c-6.78,0.1-7.45-2.04-4.62-8.05c4.87-10.37,10.94-15.47,23.77-15.02
			c33.42,1.19,66.91,0.51,100.37,0.31c6.78-0.04,8.2,0.55,5.09,7.89c-5.44,12.83-14.02,15.74-27.16,15.15
			c-24.66-1.1-24.7-0.32-24.7,23.89c0,32.67,0.15,65.34-0.09,98c-0.07,10.01,2.22,18.48,10.77,24.57c2.02,1.43,5.14,2.88,4.21,5.97
			c-0.95,3.15-4.22,2.49-6.79,2.5c-9.4,0.03-18.82-0.39-28.19,0.15c-6.48,0.37-7.25-2.52-7.19-7.95
			C957.46,867.1,957.32,843.82,957.32,820.54z"/>
		<path class="st8" d="M1367.18,875.22c0.25,1.62,0.45,2.04,0.35,2.35c-6.94,20.59-6.94,20.59-29.03,20.59
			c-21.8,0-43.6-0.35-65.38,0.19c-7.53,0.19-9.18-2.1-9.13-9.3c0.33-44.66-0.03-89.32,0.31-133.98
			c0.08-10.76-1.49-20.04-10.93-26.67c-1.87-1.31-4.99-2.83-3.19-6.2c1.3-2.43,3.86-1.86,6.04-1.87c9.02-0.04,18.08,0.5,27.04-0.18
			c7.44-0.57,8.54,2.54,8.5,9.04c-0.25,45.03,0.13,90.07-0.35,135.1c-0.09,8.9,2.24,11.42,11.16,11.14
			C1323.97,874.77,1345.38,875.22,1367.18,875.22z"/>
		<path class="st9" d="M1196.4,819.29c0-22.14-0.36-44.29,0.16-66.41c0.24-10.13-1.79-18.44-10.58-24.38
			c-1.99-1.35-4.75-3.03-3.25-6.3c1.2-2.63,3.83-1.66,5.95-1.87c0.37-0.04,0.75-0.01,1.13-0.01c10.84,0.21,24.8-3.6,31.67,1.72
			c7.33,5.69,2.21,20.3,2.3,30.98c0.33,37.14,0.33,74.3,0,111.44c-0.09,10.46,2.17,19.19,10.95,25.63c1.85,1.36,5.3,2.52,3.64,5.95
			c-1.42,2.94-4.52,2.13-7.06,2.1c-11.22-0.12-25.48,3.74-32.76-1.69c-6.94-5.18-1.77-20.28-2.03-31.01
			C1196.11,850.06,1196.4,834.67,1196.4,819.29z"/>
		<path class="st10" d="M728.83,683.82c-3.42,18.66-4.79,20.19-17.87,20.03c-4.31-0.05-11.39,0.98-10.31-4.78
			c1.08-5.72,1.07-15.11,11.27-15.24C717.53,683.77,723.13,683.82,728.83,683.82z"/>
		<path class="st11" d="M1465.18,683.82c-2.23,5.57-3.96,10.4-6.08,15.06c-2.19,4.83-19,7.4-22.42,3.43
			c-2.24-2.6-1.63-5.55,0.17-8.22c2.64-3.91,1.94-10.74,9.53-10.34C1452.3,684.07,1458.24,683.82,1465.18,683.82z"/>
		<path class="st12" d="M691.87,683.82c-5.69,9.71-4.1,23.13-19.72,20.14c-4.18-0.8-11.32,1.02-10.38-4.91
			c0.93-5.86,1.33-14.99,11.36-15.21C678.75,683.72,684.37,683.82,691.87,683.82z"/>
		<path class="st10" d="M1504.03,683.83c-4.8,9.25-3.03,22.86-19.2,20.11c-4.21-0.72-11.24,1.07-10.26-5.08
			c0.89-5.6,1.31-14.32,10.51-14.95C1491.02,683.5,1497.01,683.83,1504.03,683.83z"/>
		<path class="st4" d="M1259.69,539.68c1.57-4.44,4.93-6.51,9.42-7.09C1267.32,536.74,1266.05,541.58,1259.69,539.68z"/>
	</g>
</g>
<g id="Camada_2">
	<g>
		<path class="st13" d="M1066.56,118.91c29.68-0.06,59.4,0.96,89.01-0.36c25.35-1.13,39.59,2.96,39.57,34.45
			c-0.02,33.42-18.18,33.02-41.5,32.87c-56.65-0.38-113.33-1.02-169.94,0.65c-57.98,1.71-99.68,31.31-123.34,83.39
			c-20.96,46.14-10.3,89.44,20.32,128.24c33.55,42.51,97.16,62.05,145.07,45.3c63.11-22.06,97.72-66.26,99.23-126.93
			c0.3-12.12,1.08-24.33,0.01-36.35c-2.24-25.04,13.72-29.78,32.81-29.38c19.3,0.4,36.27,2.37,39.06,29.44
			c11.24,109.34-56.14,205.93-164.19,232.32c-94.77,23.15-200.77-32.57-240.47-126.39c-49.73-117.5,48.53-262.54,181.29-267.03
			C1004.49,118.07,1035.54,118.96,1066.56,118.91z"/>
		<path class="st14" d="M1221.04,802.54c31.58-70.99,61.57-136.78,89.96-203.25c8.28-19.38,17.28-29.49,40.94-29.38
			c23.23,0.1,32.82,9.04,41.22,28.84c28.81,67.83,59.45,134.88,89.83,203.23c-37,11.21-63.4,7.4-71.81-33.1
			c-3.53-17-15.59-19.26-30.36-18.76c-20.21,0.68-40.56,1.53-60.65-0.13c-18.59-1.53-28.47,6.87-31.37,23.23
			c-5.52,31.09-25.82,36.75-52.66,33.29c-5.33-0.69-11.08-1.87-16.1-0.63c-44.88,11.11-70.65-9.85-86.46-49.54
			c-3.93-9.86-10.87-18.5-16.32-27.77c-13.83-23.5-36.5-13.18-54.92-12.08c-20.5,1.22-11.1,20.55-12.5,32.3
			c-1.42,11.95-1.01,24.25-0.14,36.31c1.68,23.12-13.53,21.23-29.05,21.68c-16.13,0.47-24.99-3.05-24.76-21.91
			c0.79-64.63,0.7-129.27,0.1-193.9c-0.15-16.51,7.17-20.58,21.99-20.3c41.79,0.8,83.63-0.25,125.38,1.33
			c30.25,1.14,55.74,12.42,63.92,45.29c8.01,32.18,5.73,63.38-25.25,82.21c-16.38,9.95-16.33,16.91-7.08,30.6
			C1189.85,752.1,1203.55,774.88,1221.04,802.54z M1095.92,612.37c-15.17,7.62-43.16-15.44-47.11,23.78
			c-4.44,44.12,24.59,36.19,48.21,34.55c22.91-1.59,59.16,10.59,58.95-28.43C1155.76,604.27,1120.12,616.45,1095.92,612.37z
			 M1385.87,706.94c-12.79-29.54-19.61-57.08-38.24-82.78c-10.86,28.88-20.5,54.49-31.13,82.78
			C1340.56,706.94,1360.21,706.94,1385.87,706.94z"/>
		<path class="st14" d="M640.99,806.42c-34.34-0.62-68.22,2.99-99.74-19.58c-39.81-28.51-60.34-76.99-42.25-134.48
			c14.03-44.6,42.74-81.89,95.6-81.01c35.06,0.58,70.14,0.12,105.2-0.51c14.01-0.25,22.5,2.17,22.73,19.38
			c0.25,18.5-7.59,22.8-24.34,22.18c-28.29-1.03-56.65-0.22-84.98-0.24c-25.14-0.02-46.39,8.37-53.72,33.92
			c-10.22,35.61-15.77,73.3,12.33,103.17c19.55,20.78,44.72,28.76,75.99,18.86c24.46-7.75,25.68-28.05,26.25-42.79
			c0.73-18.89-20.27-15.21-34.68-16.68c-17.1-1.74-44.67,11.52-40.35-25.36c1.07-9.15,1.69-14.61,13.54-9.92
			c7.12,2.82,15.97,1.06,23.99,1.88c27.62,2.83,71.33-12.78,79.58,6.81c13.55,32.15,5.2,73.6,5.58,111.13
			c0.14,13.65-10.34,13.25-20.04,13.22C681.46,806.34,661.22,806.38,640.99,806.42z"/>
		<path class="st14" d="M878.71,666.85c17.51,0,35.04,0.63,52.51-0.19c15.28-0.72,22.25,4.61,21.64,20.66
			c-0.57,14.92-6.03,21.77-21.85,21.33c-29.6-0.83-59.27-1.07-88.85,0.03c-10.75,0.4-27.15-7.73-31.35,8.12
			c-4.5,16.96,5.02,31.19,20.21,40.3c17.19,10.31,36.48,7.58,55.18,7.91c14.81,0.26,29.66,0.68,44.42-0.16
			c14.74-0.84,22.7,3.16,22.45,19.82c-0.22,14.72-4.27,22.54-20.62,22.05c-32.29-0.96-64.78,1.09-96.88-1.65
			c-43.37-3.71-75.82-33.52-82.49-76.17c-14.67-93.78,12.1-165.53,127.4-157.97c16.09,1.05,32.35,0.86,48.45-0.1
			c16.62-1,24.88,3.71,24.15,22.28c-0.67,16.83-9.15,19.52-23.31,19.53c-28.22,0.01-56.46,2.08-84.66,1.69
			c-12.28-0.17-19.25,3.68-24,14.67c-4.66,10.78-16.24,20.98-8.65,33.03c6.54,10.38,19.75,3.82,29.92,4.6
			C854.42,667.55,866.59,666.84,878.71,666.85z"/>
		<path class="st13" d="M1016.7,250.31c29.04-3.39,45.13,7.24,43.09,44.61c-3.04,55.47-27.49,89.36-71.62,89.72
			c-38.87,0.32-69.13-30.54-68.13-69.5C921.15,271.32,951.61,250,1016.7,250.31z"/>
		<path class="st15" d="M1095.92,612.37c24.21,4.08,59.84-8.1,60.05,29.9c0.22,39.02-36.03,26.84-58.95,28.43
			c-23.62,1.64-52.65,9.57-48.21-34.55C1052.76,596.92,1080.75,619.99,1095.92,612.37z"/>
		<path class="st15" d="M1385.87,706.94c-25.66,0-45.32,0-69.38,0c10.64-28.29,20.27-53.91,31.13-82.78
			C1366.27,649.86,1373.09,677.4,1385.87,706.94z"/>
	</g>
</g>
</svg>
