<?xml version="1.0" encoding="utf-8"?>
<!-- Generator: Adobe Illustrator 25.0.0, SVG Export Plug-In . SVG Version: 6.00 Build 0)  -->
<svg version="1.1" id="Camada_1" xmlns="http://www.w3.org/2000/svg" xmlns:xlink="http://www.w3.org/1999/xlink" x="0px" y="0px"
	 viewBox="0 0 1920 1080" style="enable-background:new 0 0 1920 1080;" xml:space="preserve">
<style type="text/css">
	.st0{fill:#3BB34A;}
	.st1{fill:#1B3B8F;}
	.st2{fill:none;}
	.st3{font-family:'MyriadPro-Regular';}
	.st4{font-size:72px;}
	.st5{letter-spacing:1;}
	.st6{font-family:'Montserrat-Bold';}
	.st7{letter-spacing:36;}
</style>
<g>
	<path class="st0" d="M601.45,224.45c32.35,40.14,61.91,76.71,91.35,113.38c45.84,57.11,91.63,114.28,137.39,171.46
		c40.54,50.66,81.21,101.21,121.34,152.2c6.96,8.85,9.61,12.11,18.56,0.77c70.63-89.51,142.07-178.37,213.39-267.33
		c43.95-54.82,88.13-109.46,132.27-164.14c1.01-1.25,2.69-1.94,6.67-4.7c0,8.09,0,14.29,0,20.5c0,190.28-0.16,380.57,0.34,570.85
		c0.04,14.69-3.63,18.74-18.55,18.71c-228.88-0.47-457.76-0.39-686.64-0.07c-11.76,0.02-16.45-2.17-16.43-15.36
		c0.43-193.25,0.31-386.51,0.32-579.77C601.45,237,601.45,233.05,601.45,224.45z"/>
	<path class="st1" d="M1025.13,67.86c-33.36,32.77-64.58,63.44-97.33,95.61c17.84,0,34.08,0,53.86,0
		c-32.89,34.17-63.39,65.86-96.66,100.43c20.63,0,37.85,0,59.15,0c-37.5,50.31-72.52,97.28-107.53,144.25
		c80.33-56.23,152.49-121.62,229-186.37c-13.14,0-23.48,0-37.67,0c32.71-26.84,62.51-51.3,95.59-78.45
		c-16.03,0-29.09-0.11-42.14,0.04c-9.99,0.11-11.44-3.82-6.13-11.69c12.84-19.04,21.53-20.58,38.97-5.45
		c33.14,28.78,48.98,67.48,54.01,109.18c6.72,55.71-3.06,109.4-39.29,154.56c-23.54,29.34-51.56,51.95-88.26,66.77
		c-69.27,27.97-133.27,21.28-193.47-19.15c-101.41-68.11-124.78-208.6-44.6-304.95c55.25-66.39,126.26-85.25,208.68-71.04
		C1014.62,62.17,1017.65,64.41,1025.13,67.86z"/>
</g>
<rect x="594.76" y="863.56" class="st2" width="721.62" height="64.82"/>
<text transform="matrix(1 0 0 1 600.5413 914.6786)" class="st3 st4 st5">Companhia Energética</text>
<rect x="594.76" y="941.91" class="st2" width="721.62" height="64.82"/>
<text transform="matrix(1 0 0 1 600.9705 995.328)" class="st6 st4 st7">MANAUARA</text>
</svg>
